# xmcd
#
# Track frame offsets: 
#        150
#        22190
#        42091
#        61654
#        78983
#        102413
#        119999
#        145668
#        172162
#        194691
#        212450
#        243263
#        260542
#        299009
#        348258
#
# Disc length: 4765 seconds
#
# Revision: 1
# Processed by: cddbd v1.5.2PL0 Copyright (c) Steve Scherf et al.
# Submitted via: ExactAudioCopy v0.95b4
#
DISCID=e8129b0f
DTITLE=Kenny Clarke - Klook's The Man - CD2 - Sonor
DYEAR=1951
DGENRE=Jazz
TTITLE0=Sonor
TTITLE1=Strollin'
TTITLE2=Blues Mood
TTITLE3=Skoot
TTITLE4=Klook's Nook
TTITLE5=Inhibitions
TTITLE6=Baggin' The Blues
TTITLE7=Telefunken Blues
TTITLE8=Summer Evening
TTITLE9=Oz The Wizzard
TTITLE10=I Dig You The Most
TTITLE11=Pru's Blooze
TTITLE12=Plenty For Kenny
TTITLE13=Cute Tomato
TTITLE14=Now's The Time
EXTD=YEAR: 1951
EXTT0=
EXTT1=
EXTT2=
EXTT3=
EXTT4=
EXTT5=
EXTT6=
EXTT7=
EXTT8=
EXTT9=
EXTT10=
EXTT11=
EXTT12=
EXTT13=
EXTT14=
PLAYORDER=
